<svg width="16" height="16" viewBox="0 0 16 16" fill="none" xmlns="http://www.w3.org/2000/svg">
<g id="check2-square 1">
<path id="Vector" d="M3 14.5C2.60218 14.5 2.22064 14.342 1.93934 14.0607C1.65804 13.7794 1.5 13.3978 1.5 13V3C1.5 2.60218 1.65804 2.22064 1.93934 1.93934C2.22064 1.65804 2.60218 1.5 3 1.5H11C11.1326 1.5 11.2598 1.55268 11.3536 1.64645C11.4473 1.74021 11.5 1.86739 11.5 2C11.5 2.13261 11.4473 2.25979 11.3536 2.35355C11.2598 2.44732 11.1326 2.5 11 2.5H3C2.86739 2.5 2.74021 2.55268 2.64645 2.64645C2.55268 2.74021 2.5 2.86739 2.5 3V13C2.5 13.1326 2.55268 13.2598 2.64645 13.3536C2.74021 13.4473 2.86739 13.5 3 13.5H13C13.1326 13.5 13.2598 13.4473 13.3536 13.3536C13.4473 13.2598 13.5 13.1326 13.5 13V8C13.5 7.86739 13.5527 7.74021 13.6464 7.64645C13.7402 7.55268 13.8674 7.5 14 7.5C14.1326 7.5 14.2598 7.55268 14.3536 7.64645C14.4473 7.74021 14.5 7.86739 14.5 8V13C14.5 13.3978 14.342 13.7794 14.0607 14.0607C13.7794 14.342 13.3978 14.5 13 14.5H3Z" fill="#C5C5C5"/>
<path id="Vector_2" d="M8.35402 10.3539L15.354 3.3539C15.4005 3.30741 15.4374 3.25222 15.4625 3.19148C15.4877 3.13074 15.5007 3.06564 15.5007 2.9999C15.5007 2.93416 15.4877 2.86906 15.4625 2.80832C15.4374 2.74758 15.4005 2.69239 15.354 2.6459C15.3075 2.59941 15.2523 2.56254 15.1916 2.53738C15.1309 2.51222 15.0658 2.49927 15 2.49927C14.9343 2.49927 14.8692 2.51222 14.8084 2.53738C14.7477 2.56254 14.6925 2.59941 14.646 2.6459L8.00002 9.2929L5.35402 6.6459C5.30753 6.59941 5.25234 6.56253 5.19161 6.53738C5.13087 6.51222 5.06577 6.49927 5.00002 6.49927C4.93428 6.49927 4.86918 6.51222 4.80844 6.53738C4.7477 6.56253 4.69251 6.59941 4.64602 6.6459C4.59953 6.69239 4.56266 6.74758 4.5375 6.80832C4.51234 6.86905 4.49939 6.93416 4.49939 6.9999C4.49939 7.06564 4.51234 7.13074 4.5375 7.19148C4.56266 7.25222 4.59953 7.30741 4.64602 7.3539L7.64602 10.3539C7.69247 10.4005 7.74764 10.4374 7.80839 10.4626C7.86913 10.4878 7.93425 10.5008 8.00002 10.5008C8.06579 10.5008 8.13091 10.4878 8.19165 10.4626C8.2524 10.4374 8.30758 10.4005 8.35402 10.3539Z" fill="#C5C5C5"/>
</g>
</svg>
