<svg width="24" height="24" viewBox="0 0 24 24" fill="none" xmlns="http://www.w3.org/2000/svg">
<path d="M11.049 4.92708C11.349 4.00608 12.652 4.00608 12.951 4.92708L14.021 8.21908C14.0863 8.41957 14.2134 8.59426 14.384 8.71818C14.5547 8.84211 14.7601 8.90892 14.971 8.90908H18.433C19.402 8.90908 19.804 10.1491 19.021 10.7191L16.221 12.7531C16.05 12.8771 15.9227 13.0521 15.8573 13.2529C15.7919 13.4538 15.7918 13.6702 15.857 13.8711L16.927 17.1631C17.227 18.0841 16.172 18.8511 15.387 18.2811L12.587 16.2471C12.4162 16.1231 12.2105 16.0563 11.9995 16.0563C11.7884 16.0563 11.5828 16.1231 11.412 16.2471L8.61197 18.2811C7.82797 18.8511 6.77397 18.0841 7.07297 17.1631L8.14297 13.8711C8.20815 13.6702 8.20803 13.4538 8.14264 13.2529C8.07725 13.0521 7.94994 12.8771 7.77897 12.7531L4.97997 10.7201C4.19697 10.1501 4.59997 8.91008 5.56797 8.91008H9.02897C9.24002 8.91013 9.44568 8.84342 9.6165 8.71948C9.78732 8.59554 9.91455 8.42073 9.97997 8.22008L11.05 4.92808L11.049 4.92708Z" fill="white"/>
</svg>
