<svg width="24" height="24" viewBox="0 0 24 24" fill="none" xmlns="http://www.w3.org/2000/svg">
<g clip-path="url(#clip0_249_1912)">
<path d="M20 11.5C20 15.366 16.418 18.5 12 18.5C11.2077 18.5011 10.4186 18.3982 9.653 18.194C9.069 18.49 7.728 19.058 5.472 19.428C5.272 19.46 5.12 19.252 5.199 19.066C5.553 18.23 5.873 17.116 5.969 16.1C4.744 14.87 4 13.26 4 11.5C4 7.634 7.582 4.5 12 4.5C16.418 4.5 20 7.634 20 11.5ZM9 11.5C9 11.2348 8.89464 10.9804 8.70711 10.7929C8.51957 10.6054 8.26522 10.5 8 10.5C7.73478 10.5 7.48043 10.6054 7.29289 10.7929C7.10536 10.9804 7 11.2348 7 11.5C7 11.7652 7.10536 12.0196 7.29289 12.2071C7.48043 12.3946 7.73478 12.5 8 12.5C8.26522 12.5 8.51957 12.3946 8.70711 12.2071C8.89464 12.0196 9 11.7652 9 11.5ZM13 11.5C13 11.2348 12.8946 10.9804 12.7071 10.7929C12.5196 10.6054 12.2652 10.5 12 10.5C11.7348 10.5 11.4804 10.6054 11.2929 10.7929C11.1054 10.9804 11 11.2348 11 11.5C11 11.7652 11.1054 12.0196 11.2929 12.2071C11.4804 12.3946 11.7348 12.5 12 12.5C12.2652 12.5 12.5196 12.3946 12.7071 12.2071C12.8946 12.0196 13 11.7652 13 11.5ZM16 12.5C16.2652 12.5 16.5196 12.3946 16.7071 12.2071C16.8946 12.0196 17 11.7652 17 11.5C17 11.2348 16.8946 10.9804 16.7071 10.7929C16.5196 10.6054 16.2652 10.5 16 10.5C15.7348 10.5 15.4804 10.6054 15.2929 10.7929C15.1054 10.9804 15 11.2348 15 11.5C15 11.7652 15.1054 12.0196 15.2929 12.2071C15.4804 12.3946 15.7348 12.5 16 12.5Z" fill="white"/>
</g>
<defs>
<clipPath id="clip0_249_1912">
<rect width="16" height="16" fill="white" transform="translate(4 3.5)"/>
</clipPath>
</defs>
</svg>
