<svg width="24" height="24" viewBox="0 0 24 24" fill="none" xmlns="http://www.w3.org/2000/svg">
<g clip-path="url(#clip0_249_1875)">
<path d="M20 11.5C20 13.6217 19.1571 15.6566 17.6569 17.1569C16.1566 18.6571 14.1217 19.5 12 19.5C9.87827 19.5 7.84344 18.6571 6.34315 17.1569C4.84285 15.6566 4 13.6217 4 11.5C4 9.37827 4.84285 7.34344 6.34315 5.84315C7.84344 4.34285 9.87827 3.5 12 3.5C14.1217 3.5 16.1566 4.34285 17.6569 5.84315C19.1571 7.34344 20 9.37827 20 11.5ZM14 11.5C14 10.9696 13.7893 10.4609 13.4142 10.0858C13.0391 9.71071 12.5304 9.5 12 9.5C11.4696 9.5 10.9609 9.71071 10.5858 10.0858C10.2107 10.4609 10 10.9696 10 11.5C10 12.0304 10.2107 12.5391 10.5858 12.9142C10.9609 13.2893 11.4696 13.5 12 13.5C12.5304 13.5 13.0391 13.2893 13.4142 12.9142C13.7893 12.5391 14 12.0304 14 11.5ZM8 11.5C8 10.4391 8.42143 9.42172 9.17157 8.67157C9.92172 7.92143 10.9391 7.5 12 7.5C12.1326 7.5 12.2598 7.44732 12.3536 7.35355C12.4473 7.25979 12.5 7.13261 12.5 7C12.5 6.86739 12.4473 6.74021 12.3536 6.64645C12.2598 6.55268 12.1326 6.5 12 6.5C10.6739 6.5 9.40215 7.02678 8.46447 7.96447C7.52678 8.90215 7 10.1739 7 11.5C7 11.6326 7.05268 11.7598 7.14645 11.8536C7.24021 11.9473 7.36739 12 7.5 12C7.63261 12 7.75979 11.9473 7.85355 11.8536C7.94732 11.7598 8 11.6326 8 11.5ZM17 11.5C17 11.3674 16.9473 11.2402 16.8536 11.1464C16.7598 11.0527 16.6326 11 16.5 11C16.3674 11 16.2402 11.0527 16.1464 11.1464C16.0527 11.2402 16 11.3674 16 11.5C16 12.5609 15.5786 13.5783 14.8284 14.3284C14.0783 15.0786 13.0609 15.5 12 15.5C11.8674 15.5 11.7402 15.5527 11.6464 15.6464C11.5527 15.7402 11.5 15.8674 11.5 16C11.5 16.1326 11.5527 16.2598 11.6464 16.3536C11.7402 16.4473 11.8674 16.5 12 16.5C13.3261 16.5 14.5979 15.9732 15.5355 15.0355C16.4732 14.0979 17 12.8261 17 11.5Z" fill="#84909A"/>
</g>
<defs>
<clipPath id="clip0_249_1875">
<rect width="16" height="16" fill="white" transform="translate(4 3.5)"/>
</clipPath>
</defs>
</svg>
